Coordinates
version=1
nRows=20
nColumns=63
inDegrees=yes

Units are S.I. units (second, meters, Newtons, ...)
If the header above contains a line with 'inDegrees', this indicates whether rotational values are in degrees (yes) or radians (no).

endheader
time	pelvis_tilt	pelvis_list	pelvis_rotation	pelvis_tx	pelvis_ty	pelvis_tz	hip_flexion_r	hip_adduction_r	hip_rotation_r	knee_angle_r	knee_angle_r_beta	ankle_angle_r	subtalar_angle_r	mtp_angle_r	hip_flexion_l	hip_adduction_l	hip_rotation_l	knee_angle_l	knee_angle_l_beta	ankle_angle_l	subtalar_angle_l	mtp_angle_l	L5_S1_Flex_Ext	L5_S1_Lat_Bending	L5_S1_axial_rotation	L4_L5_Flex_Ext	L4_L5_Lat_Bending	L4_L5_axial_rotation	L3_L4_Flex_Ext	L3_L4_Lat_Bending	L3_L4_axial_rotation	L2_L3_Flex_Ext	L2_L3_Lat_Bending	L2_L3_axial_rotation	L1_L2_Flex_Ext	L1_L2_Lat_Bending	L1_L2_axial_rotation	L1_T12_Flex_Ext	L1_T12_Lat_Bending	L1_T12_axial_rotation	Abs_r3	Abs_r2	Abs_r1	Abs_t1	Abs_t2	neck_flexion	neck_bending	neck_rotation	arm_flex_r	arm_add_r	arm_rot_r	elbow_flex_r	pro_sup_r	wrist_flex_r	wrist_dev_r	arm_flex_l	arm_add_l	arm_rot_l	elbow_flex_l	pro_sup_l	wrist_flex_l	wrist_dev_l
0.000000	8.860935	-2.976464	92.680559	0.444128	0.715848	0.731342	5.753462	5.008624	7.474270	0.211924	0.003699	17.275907	-16.948631	0.000000	5.817258	-4.361492	11.970413	0.882016	0.015394	25.542311	-3.979199	0.000000	0.343926	0.398349	-0.060432	0.638705	0.529804	-0.064209	0.565036	0.968545	-0.064209	0.393073	0.968545	-0.052878	0.319370	0.812312	-0.049101	0.196519	0.617042	-0.045324	2.456629	4.506198	-0.336107	0.000000	0.000000	27.047204	-13.925660	-0.952986	18.193972	-12.856238	76.423578	42.196814	88.303102	-9.424402	-0.595058	14.175086	-4.714390	59.336931	40.607858	56.901255	4.739339	12.626305
0.017857	8.870385	-3.103274	92.725486	0.443558	0.715267	0.731843	5.992676	4.924499	7.233534	0.203329	0.003549	18.205997	-16.889481	0.000000	6.032131	-4.332500	11.979361	0.931513	0.016258	26.237871	-2.721776	0.000000	0.350038	0.395035	-0.053471	0.650056	0.525397	-0.056813	0.575078	0.960489	-0.056813	0.400058	0.960489	-0.046787	0.325045	0.805556	-0.043445	0.200012	0.611910	-0.040103	2.500287	4.468720	-0.297389	0.000000	0.000000	27.252681	-13.878567	-1.624472	17.976430	-13.044160	75.502304	42.551373	88.264458	-9.714274	-0.678007	14.128454	-4.666630	59.588421	40.644524	55.990488	4.011836	12.081268
0.035714	8.879716	-3.181751	92.762330	0.443120	0.714821	0.732167	6.140083	4.857115	7.060460	0.197556	0.003448	18.886112	-16.864778	0.000000	6.157917	-4.314328	12.097785	0.961235	0.016777	26.693350	-1.910017	0.000000	0.353903	0.393673	-0.044723	0.657233	0.523585	-0.047518	0.581427	0.957177	-0.047518	0.404476	0.957177	-0.039132	0.328634	0.802778	-0.036337	0.202220	0.609800	-0.033542	2.527894	4.453310	-0.248734	0.000000	0.000000	27.386866	-13.868131	-2.110531	17.820402	-13.201239	74.852538	42.821027	88.243126	-9.845184	-0.736450	14.102596	-4.636133	59.822783	40.685550	55.277422	3.442245	11.644050
0.053571	8.888938	-3.216491	92.791262	0.442807	0.714502	0.732331	6.205370	4.805491	6.948785	0.194617	0.003397	19.341139	-16.870842	0.000000	6.204584	-4.306122	12.303653	0.975304	0.017022	26.938520	-1.487867	0.000000	0.355749	0.394004	-0.034646	0.660662	0.524025	-0.036811	0.584461	0.957981	-0.036811	0.406586	0.957981	-0.030315	0.330349	0.803453	-0.028150	0.203275	0.610312	-0.025984	2.541082	4.457052	-0.192690	0.000000	0.000000	27.456689	-13.888318	-2.427674	17.718460	-13.327852	74.450870	43.011629	88.237468	-9.848754	-0.774503	14.093959	-4.621044	60.041511	40.728697	54.740027	3.014715	11.304582
0.071429	8.898058	-3.212088	92.812455	0.442610	0.714300	0.732351	6.198224	4.768648	6.892244	0.194523	0.003395	19.595962	-16.903998	0.000000	6.182104	-4.307029	12.574931	0.977845	0.017067	27.003152	-1.399268	0.000000	0.355805	0.395770	-0.023698	0.660766	0.526374	-0.025179	0.584552	0.962275	-0.025179	0.406650	0.962275	-0.020736	0.330401	0.807054	-0.019254	0.203307	0.613048	-0.017773	2.541481	4.477030	-0.131800	0.000000	0.000000	27.469083	-13.933094	-2.592415	17.663176	-13.424376	74.273891	43.129034	88.245849	-9.756601	-0.796284	14.098991	-4.619508	60.246101	40.771726	54.356275	2.713395	11.052797
0.089286	8.907085	-3.173137	92.826079	0.442522	0.714206	0.732241	6.128331	4.745608	6.884572	0.197286	0.003443	19.675466	-16.960567	0.000000	6.100444	-4.316193	12.889586	0.972981	0.016982	26.917015	-1.588165	0.000000	0.354299	0.398714	-0.012337	0.657969	0.530289	-0.013108	0.582078	0.969433	-0.013108	0.404928	0.969433	-0.010795	0.329002	0.813057	-0.010023	0.202446	0.617608	-0.009252	2.530723	4.510329	-0.068612	0.000000	0.000000	27.430976	-13.996424	-2.621266	17.647122	-13.491188	74.298194	43.179093	88.266630	-9.600346	-0.805909	14.114139	-4.629669	60.438046	40.812398	54.104136	2.522433	10.878625
0.107143	8.916026	-3.104233	92.832305	0.442535	0.714211	0.732018	6.005378	4.735389	6.919505	0.202917	0.003542	19.604535	-17.036873	0.000000	5.969576	-4.332761	13.225585	0.964834	0.016840	26.709882	-1.998500	0.000000	0.351459	0.402577	-0.001020	0.652695	0.535428	-0.001084	0.577412	0.978826	-0.001084	0.401683	0.978826	-0.000892	0.326365	0.820935	-0.000829	0.200824	0.623592	-0.000765	2.510437	4.554033	-0.005672	0.000000	0.000000	27.349299	-14.072274	-2.530738	17.662871	-13.528664	74.500369	43.167660	88.298175	-9.411607	-0.807496	14.135851	-4.649674	60.618843	40.848475	53.961581	2.425978	10.771998
0.125000	8.924889	-3.009972	92.831305	0.442641	0.714305	0.731698	5.839052	4.737015	6.990778	0.211430	0.003690	19.408055	-17.129239	0.000000	5.799468	-4.355880	13.560895	0.957528	0.016712	26.411522	-2.574219	0.000000	0.347514	0.407103	0.009795	0.645368	0.541447	0.010407	0.570930	0.989830	0.010407	0.397173	0.989830	0.008570	0.322701	0.830164	0.007958	0.198569	0.630602	0.007346	2.482256	4.605227	0.054476	0.000000	0.000000	27.230985	-14.154611	-2.337346	17.702996	-13.537180	74.857007	43.100589	88.338848	-9.222005	-0.805160	14.160573	-4.677665	60.789986	40.877716	53.906582	2.408177	10.722849
0.142857	8.933684	-2.894949	92.823250	0.442832	0.714479	0.731295	5.639038	4.749504	7.092125	0.222835	0.003889	19.110911	-17.233986	0.000000	5.600091	-4.384694	13.873483	0.955187	0.016671	26.051708	-3.259263	0.000000	0.342691	0.412033	0.019649	0.636412	0.548003	0.020878	0.563007	1.001816	0.020878	0.391662	1.001816	0.017193	0.318223	0.840217	0.015965	0.195814	0.638238	0.014737	2.447809	4.660995	0.109284	0.000000	0.000000	27.082962	-14.237399	-2.057600	17.760068	-13.517113	75.344701	42.983733	88.387011	-9.063157	-0.803019	14.184754	-4.711790	60.952969	40.897883	53.917109	2.453181	10.721107
0.160714	8.942418	-2.763758	92.808310	0.443100	0.714724	0.730826	5.415024	4.771877	7.217284	0.237144	0.004139	18.737986	-17.347439	0.000000	5.381414	-4.418351	14.141316	0.961932	0.016789	25.660209	-3.997577	0.000000	0.337220	0.417109	0.028086	0.626251	0.554755	0.029842	0.554018	1.014159	0.029842	0.385409	1.014159	0.024576	0.313142	0.850569	0.022820	0.192687	0.646102	0.021065	2.408727	4.718421	0.156208	0.000000	0.000000	26.912162	-14.314606	-1.708013	17.826659	-13.468840	75.940040	42.822944	88.441028	-8.966685	-0.805190	14.204840	-4.750191	61.109288	40.906737	53.971133	2.545137	10.756706
0.178571	8.951099	-2.620995	92.786658	0.443437	0.715029	0.730306	5.176695	4.803156	7.359989	0.254369	0.004440	18.314167	-17.465919	0.000000	5.153407	-4.455996	14.342361	0.981889	0.017137	25.266797	-4.733105	0.000000	0.331328	0.422074	0.034648	0.615309	0.561359	0.036813	0.544339	1.026231	0.036813	0.378675	1.026231	0.030317	0.307671	0.860694	0.028151	0.189321	0.653793	0.025986	2.366642	4.774589	0.192701	0.000000	0.000000	26.725516	-14.380195	-1.305099	17.895343	-13.392737	76.619617	42.624077	88.499262	-8.964206	-0.815789	14.217279	-4.791015	61.260437	40.902039	54.046626	2.668193	10.819577
0.196429	8.963063	-2.483902	92.758445	0.443828	0.715388	0.729785	4.964147	4.846555	7.509454	0.281317	0.004910	17.918880	-17.558794	0.000000	4.954558	-4.499228	14.288183	1.023363	0.017861	25.027449	-5.188949	0.000000	0.326448	0.425969	0.034503	0.606247	0.566539	0.036660	0.536321	1.035702	0.036660	0.373097	1.035702	0.030191	0.303140	0.868637	0.028034	0.186532	0.659826	0.025878	2.331786	4.818650	0.191898	0.000000	0.000000	26.510373	-14.396548	-0.889057	17.963443	-13.241920	77.490298	42.348986	88.576990	-9.307174	-0.866374	14.210536	-4.832292	61.400103	40.869423	54.118094	2.828625	10.946662
0.214286	8.972915	-2.342008	92.719202	0.444254	0.715787	0.729268	4.755061	4.891537	7.692216	0.313097	0.005465	17.509509	-17.678307	0.000000	4.770509	-4.540954	14.131266	1.105352	0.019292	24.861814	-5.510102	0.000000	0.321313	0.429169	0.031715	0.596711	0.570795	0.033698	0.527885	1.043482	0.033698	0.367229	1.043482	0.027751	0.298371	0.875162	0.025769	0.183598	0.664783	0.023787	2.295108	4.854847	0.176392	0.000000	0.000000	26.299644	-14.382296	-0.454075	17.978854	-13.079606	78.254807	42.071294	88.647546	-9.846808	-0.915192	14.183570	-4.865088	61.573871	40.809494	54.079798	2.918001	11.023562
0.232143	9.003919	-2.174242	92.707936	0.444662	0.716258	0.728735	4.527428	4.962421	7.785669	0.342923	0.005985	17.118978	-17.746097	0.000000	4.575380	-4.605684	13.840594	1.204785	0.021027	24.780114	-5.567886	0.000000	0.312998	0.434492	0.019464	0.581268	0.577874	0.020681	0.514224	1.056423	0.020681	0.357725	1.056423	0.017031	0.290650	0.886016	0.015815	0.178847	0.673028	0.014598	2.235710	4.915059	0.108253	0.000000	0.000000	26.091508	-14.339891	0.038784	17.925381	-12.932542	78.830324	41.827599	88.697744	-10.493074	-0.944810	14.131569	-4.863568	61.733224	40.686079	53.972312	3.007882	11.075806
0.250000	9.025592	-2.031697	92.674090	0.445145	0.716725	0.728210	4.342119	5.028430	7.927924	0.373183	0.006513	16.770497	-17.860874	0.000000	4.425398	-4.661944	13.437572	1.339459	0.023378	24.776506	-5.474833	0.000000	0.308380	0.437106	0.006814	0.572692	0.581351	0.007240	0.506637	1.062779	0.007240	0.352447	1.062779	0.005962	0.286362	0.891346	0.005536	0.176208	0.677077	0.005110	2.202727	4.944629	0.037897	0.000000	0.000000	25.910197	-14.252341	0.487333	17.850654	-12.752800	79.423124	41.555819	88.742401	-11.384636	-1.027611	14.045959	-4.865482	61.901942	40.551307	53.770859	3.013218	11.088074
0.267857	9.045523	-1.906371	92.628894	0.445663	0.717177	0.727686	4.192667	5.096247	8.069726	0.401454	0.007007	16.504601	-17.979703	0.000000	4.313294	-4.711252	13.043745	1.503469	0.026240	24.837308	-5.370479	0.000000	0.305385	0.438649	-0.005788	0.567131	0.583403	-0.006150	0.501718	1.066531	-0.006150	0.349025	1.066531	-0.005065	0.283581	0.894493	-0.004703	0.174497	0.679467	-0.004341	2.181337	4.962083	-0.032193	0.000000	0.000000	25.786860	-14.110957	0.949401	17.748079	-12.578527	79.969843	41.301656	88.783873	-12.429869	-1.152386	13.937147	-4.856706	62.055522	40.399336	53.523887	2.996013	11.099030
0.285714	9.055464	-1.800384	92.573466	0.446239	0.717620	0.727200	4.085798	5.159248	8.194466	0.427001	0.007453	16.332886	-18.091032	0.000000	4.248386	-4.752059	12.495422	1.698792	0.029650	24.997998	-5.019553	0.000000	0.302871	0.437279	-0.018823	0.562462	0.581580	-0.020000	0.497587	1.063199	-0.020000	0.346152	1.063199	-0.016470	0.281246	0.891698	-0.015294	0.173061	0.677344	-0.014118	2.163379	4.946582	-0.104690	0.000000	0.000000	25.726284	-13.937138	1.331148	17.652678	-12.379105	80.570133	41.033755	88.813901	-13.661313	-1.347950	13.819065	-4.859090	62.207397	40.253120	53.230295	2.921044	11.083172
0.303571	9.050812	-1.714459	92.502936	0.446881	0.718045	0.726723	4.020275	5.212881	8.296064	0.449204	0.007840	16.300895	-18.150813	0.000000	4.228465	-4.767525	12.084319	1.918462	0.033483	25.218037	-4.811480	0.000000	0.301051	0.432747	-0.029352	0.559081	0.575554	-0.031187	0.494596	1.052182	-0.031187	0.344071	1.052182	-0.025683	0.279556	0.882458	-0.023849	0.172020	0.670326	-0.022014	2.150376	4.895324	-0.163249	0.000000	0.000000	25.732582	-13.772008	1.618726	17.622341	-12.156077	81.350993	40.738266	88.853575	-15.012196	-1.631814	13.719802	-4.885446	62.434552	40.125744	52.818540	2.799363	11.040716
0.321429	9.027849	-1.664802	92.415496	0.447599	0.718425	0.726295	4.014873	5.253563	8.376211	0.469148	0.008188	16.393994	-18.180825	0.000000	4.277717	-4.772102	11.397928	2.164833	0.037783	25.587495	-4.167295	0.000000	0.300891	0.424548	-0.034754	0.558784	0.564649	-0.036926	0.494334	1.032246	-0.036926	0.343888	1.032246	-0.030409	0.279407	0.865738	-0.028237	0.171929	0.657625	-0.026065	2.149234	4.802572	-0.193290	0.000000	0.000000	25.810016	-13.622272	1.781292	17.615333	-11.921142	82.163087	40.449206	88.888535	-16.375168	-1.958861	13.619622	-4.925778	62.636917	40.021096	52.415880	2.645385	10.977929
0.339286	8.978349	-1.642626	92.297690	0.448411	0.718784	0.725879	4.053272	5.272670	8.474715	0.485593	0.008475	16.579040	-18.196099	0.000000	4.376279	-4.757222	10.634111	2.428460	0.042385	26.037856	-3.380093	0.000000	0.302032	0.412554	-0.034126	0.560903	0.548697	-0.036259	0.496208	1.003084	-0.036259	0.345192	1.003084	-0.029860	0.280467	0.841280	-0.027727	0.172581	0.639046	-0.025594	2.157382	4.666892	-0.189798	0.000000	0.000000	25.949661	-13.499237	1.865748	17.692591	-11.660540	83.168644	40.128430	88.930705	-17.761126	-2.369633	13.514403	-4.987732	62.806121	39.948283	52.032469	2.474686	10.914211
